<mxfile host="app.diagrams.net" modified="2022-04-14T18:25:07.233Z" agent="5.0 (X11; Linux x86_64) AppleWebKit/537.36 (KHTML, like Gecko) Chrome/102.0.4987.0 Safari/537.36" etag="XjW4J6e-7Fo4t_Q_OGuD" version="17.4.4" type="github">
  <diagram name="Page-1" id="5d7acffa-a066-3a61-03fe-96351882024d">
    <mxGraphModel dx="1021" dy="548" grid="1" gridSize="10" guides="1" tooltips="1" connect="1" arrows="1" fold="1" page="1" pageScale="1" pageWidth="1100" pageHeight="850" background="#ffffff" math="0" shadow="0">
      <root>
        <mxCell id="0" />
        <mxCell id="1" parent="0" />
        <mxCell id="ARuOVk7Q3wwpbp2ctb0l-2" value="" style="rounded=0;whiteSpace=wrap;html=1;fillColor=#e1d5e7;strokeColor=#9673a6;" vertex="1" parent="1">
          <mxGeometry x="230" y="155" width="120" height="540" as="geometry" />
        </mxCell>
        <mxCell id="ARuOVk7Q3wwpbp2ctb0l-3" value="" style="rounded=0;whiteSpace=wrap;html=1;fillColor=#f8cecc;strokeColor=#b85450;" vertex="1" parent="1">
          <mxGeometry x="920" y="155" width="120" height="540" as="geometry" />
        </mxCell>
        <mxCell id="ARuOVk7Q3wwpbp2ctb0l-4" value="Container" style="swimlane;startSize=35;fontSize=14;" vertex="1" parent="1">
          <mxGeometry x="490" y="155" width="300" height="105" as="geometry" />
        </mxCell>
        <mxCell id="ARuOVk7Q3wwpbp2ctb0l-5" value="" style="rounded=0;whiteSpace=wrap;html=1;fontSize=14;" vertex="1" parent="ARuOVk7Q3wwpbp2ctb0l-4">
          <mxGeometry x="10" y="45" width="110" height="50" as="geometry" />
        </mxCell>
        <mxCell id="ARuOVk7Q3wwpbp2ctb0l-6" value="" style="rounded=0;whiteSpace=wrap;html=1;fontSize=14;" vertex="1" parent="ARuOVk7Q3wwpbp2ctb0l-4">
          <mxGeometry x="180" y="45" width="110" height="50" as="geometry" />
        </mxCell>
      </root>
    </mxGraphModel>
  </diagram>
</mxfile>
